<?xml version="1.0" encoding="UTF-8"?>
<svg width="772px" height="282px" viewBox="0 0 772 282" version="1.1" xmlns="http://www.w3.org/2000/svg" xmlns:xlink="http://www.w3.org/1999/xlink">
    <title>kompass_logo</title>
    <g id="Logos" stroke="none" stroke-width="1" fill="none" fill-rule="evenodd">
        <g id="kompass_logo" transform="translate(0.661851, 0.903226)" fill-rule="nonzero">
            <g id="Icon">
                <path d="M83.9000661,40.3561524 C64.4365718,40.3561524 48.6546243,56.1238176 48.6546243,75.5787476 C48.6546243,95.0336776 64.4365718,110.801343 83.9000661,110.801343 C103.36356,110.801343 119.145508,95.0336776 119.145508,75.5787476 C119.145508,56.1238176 103.36356,40.3561524 83.9000661,40.3561524 Z M83.9000661,60.3561524 C92.3219168,60.3561524 99.1455079,67.1735682 99.1455079,75.5787476 C99.1455079,83.983927 92.3219168,90.8013429 83.9000661,90.8013429 C75.4782153,90.8013429 68.6546243,83.983927 68.6546243,75.5787476 C68.6546243,67.1735682 75.4782153,60.3561524 83.9000661,60.3561524 Z" id="Oval" fill="#36424A"></path>
                <path d="M83.9000661,0 C89.329306,0 93.7479978,4.32667079 93.8962243,9.72009516 L93.9000661,10 L93.9000661,43.630127 C93.9000661,49.1529745 89.4229136,53.630127 83.9000661,53.630127 C78.4708261,53.630127 74.0521343,49.3034562 73.9039079,43.9100318 L73.9000661,43.630127 L73.9000661,10 C73.9000661,4.4771525 78.3772186,0 83.9000661,0 Z" id="Path-4" fill="#36424A"></path>
                <path d="M155.817856,159.557926 C158.819993,154.890083 165.037741,153.539761 169.705584,156.541898 C174.373427,159.544035 175.723748,165.761783 172.721611,170.429626 C157.852746,193.548334 135.22752,207.654807 105.553803,212.534772 C76.2033406,217.361577 52.1757245,213.587044 33.9289724,200.750764 C29.3897426,197.557493 28.2986274,191.289063 31.4918984,186.749833 C34.6281467,182.291661 40.7307078,181.159556 45.2480297,184.145785 L45.4928295,184.312759 C58.9644289,193.7898 77.7449489,196.740059 102.292407,192.703128 C126.51661,188.719358 144.12247,177.742381 155.817856,159.557926 Z" id="Path-3" fill="#FFA700"></path>
                <path d="M84.4475279,119.86768 C96.6710111,119.86768 108.110525,125.843067 115.095623,135.847716 L115.388107,136.27284 L172.434514,220.423729 C176.947838,227.081471 175.209444,236.137409 168.551702,240.650734 C161.989071,245.099582 153.096273,243.474056 148.520886,237.050238 L148.324697,236.767922 L91.2782909,152.617033 C89.7427231,150.35187 87.184119,148.99526 84.4475279,148.99526 C82.0858009,148.99526 79.8873331,150.176616 78.5822834,152.130718 L78.4357072,152.359597 L26.9788123,236.213069 C22.7719246,243.068558 13.804097,245.215673 6.94860872,241.008785 C0.189676601,236.861149 -1.99257846,228.08574 1.97891409,221.269488 L2.15289311,220.978581 L53.609788,137.125109 C60.1897001,126.402572 71.8670648,119.86768 84.4475279,119.86768 Z" id="Path-2" fill="#36424A"></path>
            </g>
            <g id="ompass" transform="translate(178.648788, 156.007620)">
                <path d="M47.2769696,88.9138797 C74.3160786,88.9138797 94.5539393,69.0077873 94.5539393,44.4569399 C94.5539393,19.9060925 74.3160786,0 47.2769696,0 C20.2378607,0 0,19.9060925 0,44.4569399 C0,69.1736714 20.2378607,88.9138797 47.2769696,88.9138797 Z M47.2769696,68.1783667 C34.3380095,68.1783667 24.3849633,57.8935523 24.3849633,44.622824 C24.3849633,31.1862116 34.3380095,20.9013971 47.2769696,20.9013971 C60.0500456,20.9013971 70.168976,31.1862116 70.168976,44.622824 C70.168976,57.8935523 60.0500456,68.1783667 47.2769696,68.1783667 Z" id="Shape" fill="#36424A"></path>
                <path d="M110.651798,87.0891546 L120.43896,87.0891546 C125.581367,87.0891546 128.401397,84.2691248 128.401397,79.1267176 L128.401397,43.129867 C128.401397,27.2049931 136.19795,20.9013971 143.828619,20.9013971 C151.459288,20.9013971 155.938158,27.3708772 155.938158,39.3145326 L155.938158,79.1267176 C155.938158,84.2691248 158.758188,87.0891546 163.900595,87.0891546 L173.687757,87.0891546 C178.830165,87.0891546 181.650194,84.2691248 181.650194,79.1267176 L181.650194,42.3004465 C181.981963,26.7073407 189.778516,20.9013971 196.911532,20.9013971 C204.542201,20.9013971 209.186956,27.3708772 209.186956,39.3145326 L209.186956,79.1267176 C209.186956,84.2691248 212.006986,87.0891546 217.149393,87.0891546 L226.770671,87.0891546 C231.913078,87.0891546 234.898992,84.2691248 234.898992,79.1267176 L234.898992,38.1533439 C234.898992,18.0813673 225.609482,2.27373675e-13 203.546896,2.27373675e-13 C193.925618,2.27373675e-13 184.138456,2.15649335 176.176019,14.7636853 C170.701844,4.1471026 161.24645,2.27373675e-13 151.459288,2.27373675e-13 C140.842705,2.27373675e-13 131.719079,5.64005954 128.401397,15.4272217 L128.401397,9.78716214 C128.401397,4.64475491 125.581367,1.82472514 120.43896,1.82472514 L110.651798,1.82472514 C105.509391,1.82472514 102.689361,4.64475491 102.689361,9.78716214 L102.689361,79.1267176 C102.689361,84.2691248 105.509391,87.0891546 110.651798,87.0891546 Z" id="Path" fill="#36424A"></path>
                <path d="M251.651798,124.247194 L261.43896,124.247194 C266.581367,124.247194 269.401397,121.427164 269.401397,116.284757 L269.401397,74.979615 C275.539109,84.600893 285.492155,88.9138797 296.772274,88.9138797 C320.659585,88.9138797 337.745648,69.6713237 337.745648,44.4569399 C337.745648,19.4084402 320.659585,2.27373675e-13 296.772274,2.27373675e-13 C285.492155,2.27373675e-13 275.539109,4.3129867 269.401397,13.7683806 L269.401397,9.78716214 C269.401397,4.64475491 266.581367,1.82472514 261.43896,1.82472514 L251.651798,1.82472514 C246.509391,1.82472514 243.689361,4.64475491 243.689361,9.78716214 L243.689361,116.284757 C243.689361,121.427164 246.509391,124.247194 251.651798,124.247194 Z M290.800447,68.3442508 C277.695602,68.3442508 269.069629,58.0594364 269.069629,44.4569399 C269.069629,30.8544433 277.695602,20.5696289 290.800447,20.5696289 C304.237059,20.5696289 312.033612,31.3520957 312.033612,44.4569399 C312.033612,57.7276682 304.237059,68.3442508 290.800447,68.3442508 Z" id="Shape" fill="#FFA700"></path>
                <path d="M386.662735,88.9138797 C397.942854,88.9138797 407.8959,84.600893 414.033612,75.1454991 L414.033612,79.1267176 C414.033612,84.2691248 416.853642,87.0891546 421.996049,87.0891546 L431.783211,87.0891546 C436.925618,87.0891546 439.745648,84.2691248 439.745648,79.1267176 L439.745648,9.78716214 C439.745648,4.64475491 436.925618,1.82472514 431.783211,1.82472514 L421.996049,1.82472514 C416.853642,1.82472514 414.033612,4.64475491 414.033612,9.78716214 L414.033612,13.9342647 C407.8959,4.3129867 397.942854,0 386.662735,0 C362.775424,0 345.689361,19.4084402 345.689361,44.4569399 C345.689361,69.6713237 362.775424,88.9138797 386.662735,88.9138797 Z M392.634562,68.3442508 C379.19795,68.3442508 371.401397,57.7276682 371.401397,44.4569399 C371.401397,31.3520957 379.19795,20.5696289 392.634562,20.5696289 C405.739407,20.5696289 414.36538,30.8544433 414.36538,44.4569399 C414.36538,58.0594364 405.739407,68.3442508 392.634562,68.3442508 Z" id="Shape" fill="#FFA700"></path>
                <path d="M481.644918,88.9138797 C500.058053,88.9138797 515.982927,80.1220222 515.982927,62.206539 C515.651159,51.7558404 509.347563,42.3004465 491.763848,36.4945029 L481.147265,32.5132844 C476.668394,31.0203274 473.350712,29.1956023 473.350712,25.546152 C473.350712,21.5649335 476.668394,18.2472514 481.976686,18.2472514 C484.9626,18.2472514 487.948514,19.076672 490.270891,21.3990494 C493.256805,24.2190792 495.579182,25.7120361 499.892169,24.5508474 L504.536924,23.3896587 C510.011099,22.0625858 512.499361,17.7495991 509.181679,12.9389601 C502.878083,3.48356618 492.925037,0 481.976686,0 C463.56355,0 450.292822,10.9483509 450.292822,26.8732248 C450.292822,42.3004465 465.55416,48.7699266 474.346017,51.5899563 L484.796716,55.2394066 C490.270891,57.2300159 492.759153,59.054741 492.759153,62.7041913 C492.759153,67.1830621 488.280282,70.168976 481.810802,70.168976 C476.50251,70.168976 472.02364,68.510135 469.037726,65.1924529 C465.55416,61.7088867 463.56355,59.5523933 459.084679,60.7135821 L453.942272,61.8747708 C448.799865,63.2018436 446.145719,66.8512939 448.633981,71.827817 C454.27404,83.2738202 466.549464,88.9138797 481.644918,88.9138797 Z" id="Path" fill="#FFA700"></path>
                <path d="M557.644918,88.9138797 C576.058053,88.9138797 591.982927,80.1220222 591.982927,62.206539 C591.651159,51.7558404 585.347563,42.3004465 567.763848,36.4945029 L557.147265,32.5132844 C552.668394,31.0203274 549.350712,29.1956023 549.350712,25.546152 C549.350712,21.5649335 552.668394,18.2472514 557.976686,18.2472514 C560.9626,18.2472514 563.948514,19.076672 566.270891,21.3990494 C569.256805,24.2190792 571.579182,25.7120361 575.892169,24.5508474 L580.536924,23.3896587 C586.011099,22.0625858 588.499361,17.7495991 585.181679,12.9389601 C578.878083,3.48356618 568.925037,0 557.976686,0 C539.56355,0 526.292822,10.9483509 526.292822,26.8732248 C526.292822,42.3004465 541.55416,48.7699266 550.346017,51.5899563 L560.796716,55.2394066 C566.270891,57.2300159 568.759153,59.054741 568.759153,62.7041913 C568.759153,67.1830621 564.280282,70.168976 557.810802,70.168976 C552.50251,70.168976 548.02364,68.510135 545.037726,65.1924529 C541.55416,61.7088867 539.56355,59.5523933 535.084679,60.7135821 L529.942272,61.8747708 C524.799865,63.2018436 522.145719,66.8512939 524.633981,71.827817 C530.27404,83.2738202 542.549464,88.9138797 557.644918,88.9138797 Z" id="Path" fill="#FFA700"></path>
            </g>
        </g>
    </g>
</svg>