<?xml version="1.0" encoding="UTF-8"?>
<svg width="815px" height="316px" viewBox="0 0 815 316" version="1.1" xmlns="http://www.w3.org/2000/svg" xmlns:xlink="http://www.w3.org/1999/xlink">
    <title>kompass_logo_grau</title>
    <g id="Logos" stroke="none" stroke-width="1" fill="none" fill-rule="evenodd">
        <g id="Kompass-Dack" transform="translate(-391.000000, -450.000000)" fill-rule="nonzero">
            <g id="kompass_logo_grau" transform="translate(391.000000, 450.000000)">
                <g id="Icon" transform="translate(0.000000, -0.000000)">
                    <path d="M88.6600452,42.6744332 C68.0923107,42.6744332 51.4149915,59.3478804 51.4149915,79.9204093 C51.4149915,100.492938 68.0923107,117.166385 88.6600452,117.166385 C109.22778,117.166385 125.905099,100.492938 125.905099,79.9204093 C125.905099,59.3478804 109.22778,42.6744332 88.6600452,42.6744332 Z M88.6600452,63.8233439 C97.5597005,63.8233439 104.770421,71.0323899 104.770421,79.9204093 C104.770421,88.8084288 97.5597005,96.0174747 88.6600452,96.0174747 C79.7603898,96.0174747 72.5496698,88.8084288 72.5496698,79.9204093 C72.5496698,71.0323899 79.7603898,63.8233439 88.6600452,63.8233439 Z" id="Oval" fill="#C6C6C6"></path>
                    <path d="M88.6600452,0 C94.3973071,0 99.0666886,4.57521871 99.2233245,10.2784712 L99.2273843,10.5744554 L99.2273843,46.136483 C99.2273843,51.9765935 94.4962254,56.7109384 88.6600452,56.7109384 C82.9227832,56.7109384 78.2534017,52.1357197 78.0967658,46.4324672 L78.092706,46.136483 L78.092706,10.5744554 C78.092706,4.73434493 82.8238649,0 88.6600452,0 Z" id="Path-4" fill="#C6C6C6"></path>
                    <path d="M164.658013,168.723817 C167.830473,163.787827 174.400978,162.359935 179.333646,165.534532 C184.266314,168.709128 185.693244,175.284057 182.520784,180.220047 C166.80835,204.666822 142.899507,219.583648 111.542283,224.743946 C80.5266543,229.848029 55.1358575,225.856666 35.8538958,212.282999 C31.0571377,208.906289 29.9041193,202.277765 33.278557,197.477777 C36.592737,192.763503 43.0415203,191.566364 47.8151275,194.724138 L48.0738158,194.900704 C62.3097118,204.922159 82.1557241,208.041897 108.095856,203.773063 C133.694393,199.560443 152.299102,187.952887 164.658013,168.723817 Z" id="Path-3" fill="#FFA700"></path>
                    <path d="M89.2385667,126.753543 C102.155536,126.753543 114.244058,133.07219 121.625449,143.65156 L121.934526,144.101106 L182.217398,233.086088 C186.986781,240.126288 185.149761,249.702449 178.1143,254.475044 C171.179345,259.179459 161.782024,257.460554 156.947058,250.667716 L156.739738,250.369182 L96.4568656,161.3842 C94.8341791,158.988914 92.1304153,157.554372 89.2385667,157.554372 C86.7428497,157.554372 84.4196542,158.803593 83.0405639,160.869949 L82.8856718,161.111976 L28.5094259,249.782456 C24.063865,257.031761 14.5872575,259.302219 7.34283048,254.853664 C0.200437697,250.467765 -2.10562523,241.188248 2.09118563,233.980432 L2.27503516,233.672815 L56.651281,145.002335 C63.6044973,133.663835 75.9443647,126.753543 89.2385667,126.753543 Z" id="Path-2" fill="#C6C6C6"></path>
                </g>
                <g id="ompass" transform="translate(188.784233, 164.969561)">
                    <path d="M49.9591772,94.0215852 C78.5323206,94.0215852 99.9183543,72.9719766 99.9183543,47.0107926 C99.9183543,21.0496086 78.5323206,0 49.9591772,0 C21.3860337,0 0,21.0496086 0,47.0107926 C0,73.14739 21.3860337,94.0215852 49.9591772,94.0215852 Z M49.9591772,72.0949096 C36.2861392,72.0949096 25.7684177,61.2192784 25.7684177,47.186206 C25.7684177,32.9777202 36.2861392,22.1020891 49.9591772,22.1020891 C63.4569198,22.1020891 74.1499366,32.9777202 74.1499366,47.186206 C74.1499366,61.2192784 63.4569198,72.0949096 49.9591772,72.0949096 Z" id="Shape" fill="#C6C6C6"></path>
                    <path d="M116.929508,92.0920378 L127.271934,92.0920378 C132.70609,92.0920378 135.686111,89.1100099 135.686111,83.6721943 L135.686111,45.6074854 C135.686111,28.7677985 143.924993,22.1020891 151.988579,22.1020891 C160.052166,22.1020891 164.78514,28.9432119 164.78514,41.5729771 L164.78514,83.6721943 C164.78514,89.1100099 167.765161,92.0920378 173.199318,92.0920378 L183.541744,92.0920378 C188.9759,92.0920378 191.955921,89.1100099 191.955921,83.6721943 L191.955921,44.7304183 C192.306512,28.2415583 200.545394,22.1020891 208.083094,22.1020891 C216.14668,22.1020891 221.05495,28.9432119 221.05495,41.5729771 L221.05495,83.6721943 C221.05495,89.1100099 224.034972,92.0920378 229.469128,92.0920378 L239.636258,92.0920378 C245.070415,92.0920378 248.225731,89.1100099 248.225731,83.6721943 L248.225731,40.3450832 C248.225731,19.1200612 238.409191,0 215.094908,0 C204.927777,0 194.585351,2.28037427 186.171174,15.6117931 C180.386427,4.38533513 170.394592,0 160.052166,0 C148.833263,0 139.192018,5.96405578 135.686111,16.3134467 L135.686111,10.3493909 C135.686111,4.91157535 132.70609,1.92954746 127.271934,1.92954746 L116.929508,1.92954746 C111.495351,1.92954746 108.51533,4.91157535 108.51533,10.3493909 L108.51533,83.6721943 C108.51533,89.1100099 111.495351,92.0920378 116.929508,92.0920378 Z" id="Path" fill="#C6C6C6"></path>
                    <path d="M265.928989,150.190487 L276.271416,150.190487 C281.705572,150.190487 284.685593,147.208459 284.685593,141.770644 L284.685593,79.2868592 C291.171521,89.4608367 301.689242,94.0215852 313.609327,94.0215852 C338.851858,94.0215852 356.90728,73.6736302 356.90728,47.0107926 C356.90728,20.5233684 338.851858,0 313.609327,0 C301.689242,0 291.171521,4.56074854 284.685593,14.5593126 L284.685593,10.3493909 C284.685593,4.91157535 281.705572,1.92954746 276.271416,1.92954746 L265.928989,1.92954746 C260.494833,1.92954746 257.514812,4.91157535 257.514812,10.3493909 L257.514812,141.770644 C257.514812,147.208459 260.494833,150.190487 265.928989,150.190487 Z M307.298694,72.270323 C293.450361,72.270323 284.335002,61.3946919 284.335002,47.0107926 C284.335002,32.6268934 293.450361,21.7512623 307.298694,21.7512623 C321.497618,21.7512623 329.7365,33.1531336 329.7365,47.0107926 C329.7365,61.043865 321.497618,72.270323 307.298694,72.270323 Z" id="Shape" fill="#FFA700"></path>
                    <path d="M408.599625,94.0215852 C420.519709,94.0215852 431.037431,89.4608367 437.523359,79.4622726 L437.523359,83.6721943 C437.523359,89.1100099 440.50338,92.0920378 445.937536,92.0920378 L456.279962,92.0920378 C461.714118,92.0920378 464.69414,89.1100099 464.69414,83.6721943 L464.69414,10.3493909 C464.69414,4.91157535 461.714118,1.92954746 456.279962,1.92954746 L445.937536,1.92954746 C440.50338,1.92954746 437.523359,4.91157535 437.523359,10.3493909 L437.523359,14.734726 C431.037431,4.56074854 420.519709,0 408.599625,0 C383.357093,0 365.301671,20.5233684 365.301671,47.0107926 C365.301671,73.6736302 383.357093,94.0215852 408.599625,94.0215852 Z M414.910258,72.270323 C400.711334,72.270323 392.472452,61.043865 392.472452,47.0107926 C392.472452,33.1531336 400.711334,21.7512623 414.910258,21.7512623 C428.758591,21.7512623 437.87395,32.6268934 437.87395,47.0107926 C437.87395,61.3946919 428.758591,72.270323 414.910258,72.270323 Z" id="Shape" fill="#FFA700"></path>
                    <path d="M508.970519,94.0215852 C528.428304,94.0215852 545.256658,84.7246748 545.256658,65.780027 C544.906067,54.7289824 538.244844,44.7304183 519.663536,38.5909492 L508.444633,34.3810274 C503.711658,32.8023068 500.205751,30.8727593 500.205751,27.0136644 C500.205751,22.8037427 503.711658,19.2954746 509.32111,19.2954746 C512.476426,19.2954746 515.631742,20.1725416 518.085877,22.6283293 C521.241194,25.6103572 523.695329,27.1890778 528.253008,25.961184 L533.161278,24.7332901 C538.946025,23.3299829 541.575455,18.7692344 538.069548,13.6822456 C531.408325,3.68368151 520.890603,0 509.32111,0 C489.863325,0 475.839696,11.5772847 475.839696,28.4169717 C475.839696,44.7304183 491.966869,51.5715412 501.257523,54.553569 L512.301131,58.412664 C518.085877,60.5176248 520.715308,62.4471723 520.715308,66.3062672 C520.715308,71.0424291 515.982333,74.1998704 509.145814,74.1998704 C503.536363,74.1998704 498.803388,72.4457364 495.648072,68.9374683 C491.966869,65.2537868 489.863325,62.9734125 485.13035,64.2013063 L479.696194,65.4292002 C474.262038,66.8325074 471.457312,70.6916023 474.086742,75.9540045 C480.046785,88.0575295 493.018641,94.0215852 508.970519,94.0215852 Z" id="Path" fill="#FFA700"></path>
                    <path d="M589.282296,94.0215852 C608.740081,94.0215852 625.568435,84.7246748 625.568435,65.780027 C625.217845,54.7289824 618.556621,44.7304183 599.975313,38.5909492 L588.75641,34.3810274 C584.023435,32.8023068 580.517528,30.8727593 580.517528,27.0136644 C580.517528,22.8037427 584.023435,19.2954746 589.632887,19.2954746 C592.788203,19.2954746 595.94352,20.1725416 598.397655,22.6283293 C601.552971,25.6103572 604.007106,27.1890778 608.564786,25.961184 L613.473056,24.7332901 C619.257803,23.3299829 621.887233,18.7692344 618.381326,13.6822456 C611.720102,3.68368151 601.202381,0 589.632887,0 C570.175102,0 556.151473,11.5772847 556.151473,28.4169717 C556.151473,44.7304183 572.278646,51.5715412 581.5693,54.553569 L592.612908,58.412664 C598.397655,60.5176248 601.027085,62.4471723 601.027085,66.3062672 C601.027085,71.0424291 596.294111,74.1998704 589.457592,74.1998704 C583.84814,74.1998704 579.115165,72.4457364 575.959849,68.9374683 C572.278646,65.2537868 570.175102,62.9734125 565.442127,64.2013063 L560.007971,65.4292002 C554.573815,66.8325074 551.76909,70.6916023 554.39852,75.9540045 C560.358562,88.0575295 573.330419,94.0215852 589.282296,94.0215852 Z" id="Path" fill="#FFA700"></path>
                </g>
                <g id="A-Laravel-CMS" transform="translate(493.088167, 282.405224)" fill="#FFA700">
                    <path d="M4.83456869,30.5992823 L7.60560197,22.6104524 L19.3972329,22.6104524 L22.1535267,30.5992823 L26.9880954,30.5992823 L16.1250553,0.412707084 L10.86304,0.412707084 L0,30.5992823 L4.83456869,30.5992823 Z M8.93216045,18.7781723 L13.3835011,5.89581548 L13.6193338,5.89581548 L18.0706744,18.7781723 L8.93216045,18.7781723 Z" id="Shape"></path>
                    <polygon id="Path" points="47.9445996 30.5992823 66.1774089 30.5992823 66.1774089 26.678565 52.499117 26.678565 52.499117 0.412707084 47.9445996 0.412707084"></polygon>
                    <path d="M80.4068769,31.1004267 C84.1507197,31.1004267 86.2584738,29.1990262 87.0986275,27.5039792 L87.2755019,27.5039792 L87.2755019,30.5992823 L91.5794472,30.5992823 L91.5794472,15.5649529 C91.5794472,8.97637907 86.3911296,7.66456012 82.7946822,7.66456012 C78.6970904,7.66456012 74.9237685,9.31538846 73.4498146,13.4424593 L77.591625,14.3857898 C78.2401647,12.7791801 79.890993,11.2315285 82.8536403,11.2315285 C85.6983713,11.2315285 87.1575856,12.7202219 87.1575856,15.2849016 L87.1575856,15.3880784 C87.1575856,16.9946881 85.5067573,16.965209 81.4386446,17.4368743 C77.1494388,17.9380186 72.7570563,19.0582235 72.7570563,24.2023225 C72.7570563,28.6536632 76.1029316,31.1004267 80.4068769,31.1004267 Z M81.3649469,27.5629374 C78.8739649,27.5629374 77.0757411,26.4427324 77.0757411,24.2612807 C77.0757411,21.9029545 79.1687556,21.0628008 81.7186958,20.7237914 C83.1484311,20.5321774 86.538525,20.1489494 87.1723252,19.5151492 L87.1723252,22.4335779 C87.1723252,25.1161739 85.035092,27.5629374 81.3649469,27.5629374 Z" id="Shape"></path>
                    <path d="M100.252109,30.5992823 L104.659231,30.5992823 L104.659231,16.773595 C104.659231,13.8109478 106.94386,11.6737146 110.068642,11.6737146 C110.982493,11.6737146 112.014261,11.8358496 112.36801,11.9390263 L112.36801,7.72351828 C111.925824,7.66456012 111.056191,7.62034151 110.496089,7.62034151 C107.842972,7.62034151 105.573083,9.12377445 104.747669,11.5557983 L104.511836,11.5557983 L104.511836,7.9593509 L100.252109,7.9593509 L100.252109,30.5992823 Z" id="Path"></path>
                    <path d="M125.388829,31.1004267 C129.132671,31.1004267 131.240425,29.1990262 132.080579,27.5039792 L132.257454,27.5039792 L132.257454,30.5992823 L136.561399,30.5992823 L136.561399,15.5649529 C136.561399,8.97637907 131.373081,7.66456012 127.776634,7.66456012 C123.679042,7.66456012 119.90572,9.31538846 118.431766,13.4424593 L122.573577,14.3857898 C123.222116,12.7791801 124.872945,11.2315285 127.835592,11.2315285 C130.680323,11.2315285 132.139537,12.7202219 132.139537,15.2849016 L132.139537,15.3880784 C132.139537,16.9946881 130.488709,16.965209 126.420596,17.4368743 C122.13139,17.9380186 117.739008,19.0582235 117.739008,24.2023225 C117.739008,28.6536632 121.084883,31.1004267 125.388829,31.1004267 Z M126.346899,27.5629374 C123.855917,27.5629374 122.057693,26.4427324 122.057693,24.2612807 C122.057693,21.9029545 124.150707,21.0628008 126.700647,20.7237914 C128.130383,20.5321774 131.520477,20.1489494 132.154277,19.5151492 L132.154277,22.4335779 C132.154277,25.1161739 130.017044,27.5629374 126.346899,27.5629374 Z" id="Shape"></path>
                    <polygon id="Path" points="163.7764 7.9593509 159.045008 7.9593509 153.326067 25.3814856 153.090234 25.3814856 147.356554 7.9593509 142.625162 7.9593509 150.849824 30.5992823 155.566477 30.5992823"></polygon>
                    <path d="M179.686175,31.056208 C184.62392,31.056208 188.117191,28.6241842 189.119479,24.9392995 L184.94819,24.187583 C184.152255,26.3248161 182.236115,27.415542 179.730393,27.415542 C175.957071,27.415542 173.421871,24.9687786 173.303954,20.6058751 L189.399531,20.6058751 L189.399531,19.043484 C189.399531,10.86304 184.506004,7.66456012 179.376644,7.66456012 C173.068122,7.66456012 168.911572,12.4696497 168.911572,19.426712 C168.911572,26.457472 173.009163,31.056208 179.686175,31.056208 Z M173.318694,17.3042184 C173.495568,14.090999 175.824415,11.3052262 179.406123,11.3052262 C182.825696,11.3052262 185.066106,13.8404268 185.080846,17.3042184 L173.318694,17.3042184 Z" id="Shape"></path>
                    <polygon id="Path" points="201.521245 0.412707084 197.114123 0.412707084 197.114123 30.5992823 201.521245 30.5992823"></polygon>
                    <path d="M249.480567,10.2292399 C248.448799,3.77332191 243.393137,0 237.010917,0 C229.198961,0 223.435802,5.85159686 223.435802,15.5059947 C223.435802,25.1603926 229.169482,31.0119894 237.010917,31.0119894 C243.643709,31.0119894 248.493018,26.8554395 249.480567,20.8859263 L244.881831,20.8711868 C244.100635,24.7329459 240.857936,26.8554395 237.040396,26.8554395 C231.866818,26.8554395 227.96084,22.8905036 227.96084,15.5059947 C227.96084,8.18044398 231.852078,4.15654991 237.055135,4.15654991 C240.902155,4.15654991 244.130114,6.3232621 244.881831,10.2292399 L249.480567,10.2292399 Z" id="Path"></path>
                    <polygon id="Path" points="257.740528 0.412707084 257.740528 30.5992823 262.073953 30.5992823 262.073953 8.74054645 262.354004 8.74054645 271.256685 30.5550637 274.853133 30.5550637 283.755814 8.75528599 284.035865 8.75528599 284.035865 30.5992823 288.36929 30.5992823 288.36929 0.412707084 282.841963 0.412707084 273.231783 23.8780527 272.878034 23.8780527 263.267855 0.412707084"></polygon>
                    <path d="M314.272485,8.3425789 L318.664868,8.3425789 C318.532212,3.50801021 314.257746,0 308.126098,0 C302.068147,0 297.425193,3.46379159 297.425193,8.66684875 C297.425193,12.8676173 300.432059,15.3291202 305.281367,16.6409392 L308.848335,17.6137487 C312.076294,18.468642 314.567276,19.5298888 314.567276,22.2124848 C314.567276,25.1603926 311.752024,27.1060117 307.875526,27.1060117 C304.367515,27.1060117 301.449087,25.5436206 301.183775,22.2567034 L296.614518,22.2567034 C296.909309,27.7250723 301.139556,31.1004267 307.905005,31.1004267 C314.994723,31.1004267 319.077575,27.3713234 319.077575,22.2567034 C319.077575,16.8178137 314.228267,14.7100596 310.395987,13.7667291 L307.448079,13.0002731 C305.089753,12.395952 301.950231,11.2904866 301.964971,8.40153706 C301.964971,5.83685732 304.308557,3.93545683 308.022921,3.93545683 C311.486713,3.93545683 313.948216,5.55680609 314.272485,8.3425789 Z" id="Path"></path>
                </g>
            </g>
        </g>
    </g>
</svg>