<svg height="282" viewBox="0 0 772 282" width="772" xmlns="http://www.w3.org/2000/svg"><g fill="none"><g transform="translate(15.227704 10.903226)"><path d="m69.3342133 30.3561524c-19.4634942 0-35.2454417 15.7676652-35.2454417 35.2225952s15.7819475 35.2225954 35.2454417 35.2225954c19.4634943 0 35.2454417-15.7676654 35.2454417-35.2225954s-15.7819474-35.2225952-35.2454417-35.2225952zm0 20c8.4218508 0 15.2454418 6.8174158 15.2454418 15.2225952s-6.823591 15.2225953-15.2454418 15.2225953c-8.4218507 0-15.2454417-6.8174159-15.2454417-15.2225953s6.823591-15.2225952 15.2454417-15.2225952z" fill="#c6c6c6"/><path d="m69.3342133-10c5.42924 0 9.8479318 4.32667079 9.9961583 9.72009516l.0038417.27990484v33.630127c0 5.5228475-4.4771525 10-10 10-5.4292399 0-9.8479317-4.3266708-9.9961582-9.7200952l-.0038418-.2799048v-33.630127c0-5.5228475 4.4771526-10 10-10z" fill="#c6c6c6"/><path d="m141.252003 149.557926c3.002137-4.667843 9.219885-6.018165 13.887728-3.016028s6.018165 9.219885 3.016028 13.887728c-14.868866 23.118708-37.494091 37.225181-67.1678087 42.105146-29.3504624 4.826805-53.3780785 1.052272-71.6248306-11.784008-4.5392298-3.193271-5.630345-9.461701-2.437074-14.000931 3.1362483-4.458172 9.2388094-5.590277 13.7561312-2.604048l.2447999.166974c13.4715994 9.477041 32.2521194 12.4273 56.7995776 8.390369 24.2242036-3.98377 41.8300636-14.960747 53.5254486-33.145202z" fill="#ffa700"/><path d="m69.8816752 109.86768c12.2234832 0 23.6629973 5.975387 30.6480958 15.980036l.292484.425124 57.046406 84.150889c4.513324 6.657742 2.77493 15.71368-3.882812 20.227005-6.562631 4.448848-15.455429 2.823322-20.030815-3.600496l-.196189-.282316-57.0464068-84.150889c-1.5355678-2.265163-4.0941719-3.621773-6.830763-3.621773-2.361727 0-4.5601948 1.181356-5.8652445 3.135458l-.1465762.228879-51.4568949 83.853472c-4.20688769 6.855489-13.17471531 9.002604-20.0302036 4.795716-6.7589321-4.147636-8.9411872-12.923045-4.9696946-19.739297l.173979-.290907 51.4568948-83.853472c6.5799122-10.722537 18.2572769-17.257429 30.83774-17.257429z" fill="#c6c6c6"/></g><g transform="translate(179.310639 156.910846)"><path d="m47.2769696 88.9138797c27.039109 0 47.2769697-19.9060924 47.2769697-44.4569398s-20.2378607-44.4569399-47.2769697-44.4569399c-27.0391089 0-47.2769696 19.9060925-47.2769696 44.4569399 0 24.7167315 20.2378607 44.4569398 47.2769696 44.4569398zm0-20.735513c-12.9389601 0-22.8920063-10.2848144-22.8920063-23.5555427 0-13.4366124 9.9530462-23.7214269 22.8920063-23.7214269 12.773076 0 22.8920064 10.2848145 22.8920064 23.7214269 0 13.2707283-10.1189304 23.5555427-22.8920064 23.5555427z" fill="#c6c6c6"/><path d="m110.651798 87.0891546h9.787162c5.142407 0 7.962437-2.8200298 7.962437-7.962437v-35.9968506c0-15.9248739 7.796553-22.2284699 15.427222-22.2284699s12.109539 6.4694801 12.109539 18.4131355v39.812185c0 5.1424072 2.82003 7.962437 7.962437 7.962437h9.787162c5.142408 0 7.962437-2.8200298 7.962437-7.962437v-36.8262711c.331769-15.5931058 8.128322-21.3990494 15.261338-21.3990494 7.630669 0 12.275424 6.4694801 12.275424 18.4131355v39.812185c0 5.1424072 2.82003 7.962437 7.962437 7.962437h9.621278c5.142407 0 8.128321-2.8200298 8.128321-7.962437v-40.9733737c0-20.0719766-9.28951-38.1533439-31.352096-38.1533439-9.621278 0-19.40844 2.15649335-27.370877 14.7636853-5.474175-10.6165827-14.929569-14.7636853-24.716731-14.7636853-10.616583 0-19.740209 5.64005954-23.057891 15.4272217v-5.64005956c0-5.14240723-2.82003-7.962437-7.962437-7.962437h-9.787162c-5.142407 0-7.962437 2.82002977-7.962437 7.962437v69.33955546c0 5.1424072 2.82003 7.962437 7.962437 7.962437z" fill="#c6c6c6"/><g fill="#ffa700"><path d="m251.651798 124.247194h9.787162c5.142407 0 7.962437-2.82003 7.962437-7.962437v-41.305142c6.137712 9.621278 16.090758 13.9342647 27.370877 13.9342647 23.887311 0 40.973374-19.242556 40.973374-44.4569398 0-25.0484997-17.086063-44.4569399-40.973374-44.4569399-11.280119 0-21.233165 4.3129867-27.370877 13.7683806v-3.98121846c0-5.14240723-2.82003-7.962437-7.962437-7.962437h-9.787162c-5.142407 0-7.962437 2.82002977-7.962437 7.962437v106.49759486c0 5.142407 2.82003 7.962437 7.962437 7.962437zm39.148649-55.9029432c-13.104845 0-21.730818-10.2848144-21.730818-23.8873109 0-13.6024966 8.625973-23.887311 21.730818-23.887311 13.436612 0 21.233165 10.7824668 21.233165 23.887311 0 13.2707283-7.796553 23.8873109-21.233165 23.8873109z"/><path d="m386.662735 88.9138797c11.280119 0 21.233165-4.3129867 27.370877-13.7683806v3.9812185c0 5.1424072 2.82003 7.962437 7.962437 7.962437h9.787162c5.142407 0 7.962437-2.8200298 7.962437-7.962437v-69.33955546c0-5.14240723-2.82003-7.962437-7.962437-7.962437h-9.787162c-5.142407 0-7.962437 2.82002977-7.962437 7.962437v4.14710256c-6.137712-9.621278-16.090758-13.9342647-27.370877-13.9342647-23.887311 0-40.973374 19.4084402-40.973374 44.4569399 0 25.2143838 17.086063 44.4569398 40.973374 44.4569398zm5.971827-20.5696289c-13.436612 0-21.233165-10.6165826-21.233165-23.8873109 0-13.1048442 7.796553-23.887311 21.233165-23.887311 13.104845 0 21.730818 10.2848144 21.730818 23.887311 0 13.6024965-8.625973 23.8873109-21.730818 23.8873109z"/><path d="m481.644918 88.9138797c18.413135 0 34.338009-8.7918575 34.338009-26.7073407-.331768-10.4506986-6.635364-19.9060925-24.219079-25.7120361l-10.616583-3.9812185c-4.478871-1.492957-7.796553-3.3176821-7.796553-6.9671324 0-3.9812185 3.317682-7.2989006 8.625974-7.2989006 2.985914 0 5.971828.8294206 8.294205 3.151798 2.985914 2.8200298 5.308291 4.3129867 9.621278 3.151798l4.644755-1.1611887c5.474175-1.3270729 7.962437-5.6400596 4.644755-10.4506986-6.303596-9.45539392-16.256642-12.9389601-27.204993-12.9389601-18.413136 0-31.683864 10.9483509-31.683864 26.8732248 0 15.4272217 15.261338 21.8967018 24.053195 24.7167315l10.450699 3.6494503c5.474175 1.9906093 7.962437 3.8153344 7.962437 7.4647847 0 4.4788708-4.478871 7.4647847-10.948351 7.4647847-5.308292 0-9.787162-1.658841-12.773076-4.9765231-3.483566-3.4835662-5.474176-5.6400596-9.953047-4.4788708l-5.142407 1.1611887c-5.142407 1.3270728-7.796553 4.9765231-5.308291 9.9530462 5.640059 11.4460032 17.915483 17.0860627 33.010937 17.0860627z"/><path d="m557.644918 88.9138797c18.413135 0 34.338009-8.7918575 34.338009-26.7073407-.331768-10.4506986-6.635364-19.9060925-24.219079-25.7120361l-10.616583-3.9812185c-4.478871-1.492957-7.796553-3.3176821-7.796553-6.9671324 0-3.9812185 3.317682-7.2989006 8.625974-7.2989006 2.985914 0 5.971828.8294206 8.294205 3.151798 2.985914 2.8200298 5.308291 4.3129867 9.621278 3.151798l4.644755-1.1611887c5.474175-1.3270729 7.962437-5.6400596 4.644755-10.4506986-6.303596-9.45539392-16.256642-12.9389601-27.204993-12.9389601-18.413136 0-31.683864 10.9483509-31.683864 26.8732248 0 15.4272217 15.261338 21.8967018 24.053195 24.7167315l10.450699 3.6494503c5.474175 1.9906093 7.962437 3.8153344 7.962437 7.4647847 0 4.4788708-4.478871 7.4647847-10.948351 7.4647847-5.308292 0-9.787162-1.658841-12.773076-4.9765231-3.483566-3.4835662-5.474176-5.6400596-9.953047-4.4788708l-5.142407 1.1611887c-5.142407 1.3270728-7.796553 4.9765231-5.308291 9.9530462 5.640059 11.4460032 17.915483 17.0860627 33.010937 17.0860627z"/></g></g></g></svg>