<?xml version="1.0" encoding="UTF-8"?>
<svg width="512px" height="171px" viewBox="0 0 512 171" version="1.1" xmlns="http://www.w3.org/2000/svg" xmlns:xlink="http://www.w3.org/1999/xlink">
    <title>kompass_logo</title>
    <g id="Logos" stroke="none" stroke-width="1" fill="none" fill-rule="evenodd">
        <g id="kompass_logo" fill-rule="nonzero">
            <g>
                <g id="Icon">
                    <path d="M54.50352,15.7852638 C41.8595616,15.7852638 31.6072253,26.0043145 31.6072253,38.6130878 C31.6072253,51.221861 41.8595616,61.4409117 54.50352,61.4409117 C67.1474784,61.4409117 77.3998147,51.221861 77.3998147,38.6130878 C77.3998147,26.0043145 67.1474784,15.7852638 54.50352,15.7852638 Z M54.50352,28.7472979 C59.9745587,28.7472979 64.4073291,33.1656767 64.4073291,38.6130878 C64.4073291,44.0604989 59.9745587,48.4788777 54.50352,48.4788777 C49.0324813,48.4788777 44.5997109,44.0604989 44.5997109,38.6130878 C44.5997109,33.1656767 49.0324813,28.7472979 54.50352,28.7472979 Z" id="Oval" fill="#1B292D"></path>
                    <path d="M54.50352,0 C58.0304861,0 60.9009755,2.8041227 60.9972671,6.29961022 L60.9997628,28.2767596 L48.0072772,28.2767596 L48.0072772,6.48101703 C48.0072772,2.90165016 50.9157442,0 54.50352,0 Z" id="Path-4" fill="#1B292D"></path>
                    <path d="M101.223063,93.0401363 C103.173324,90.0148992 107.212523,89.1397535 110.244868,91.0854436 C113.277212,93.0311338 114.154414,97.0608665 112.204152,100.086104 C102.544977,115.069378 87.8470805,124.211806 68.5703132,127.37452 C49.5035403,130.502781 33.8946175,128.0565 22.0410843,119.737285 C19.0922904,117.66772 18.3834755,113.60514 20.4579018,110.663257 C22.4952849,107.773908 26.4596568,107.040189 29.3942187,108.975569 L29.5532466,109.083786 C38.3047247,115.225872 50.5050064,117.13794 66.4516313,114.521598 C82.1882619,111.93971 93.625456,104.825512 101.223063,93.0401363 Z" id="Path-3" fill="#FFA700"></path>
                    <path d="M54.8591645,67.3168203 C62.799836,67.3168203 70.2312221,71.1894789 74.7689115,77.6735085 L74.9589161,77.9490322 L112.017647,132.487367 C114.949612,136.802261 113.820309,142.67143 109.495278,145.596523 C105.232033,148.479829 99.4550562,147.426323 96.4827739,143.263036 L96.3553246,143.080066 L59.296594,88.5417315 C58.2990519,87.0736756 56.6369205,86.1944542 54.8591645,86.1944542 C53.3249293,86.1944542 51.8967513,86.9600935 51.0489593,88.2265501 L50.9537398,88.3748872 L17.5260915,142.720465 C14.7931951,147.163519 8.96747658,148.555068 4.51398493,145.828577 C0.123218525,143.140487 -1.29442734,137.453129 1.28555064,133.035505 L1.39857164,132.846968 L34.8262199,78.5013896 C39.1006906,71.5520948 46.6865902,67.3168203 54.8591645,67.3168203 Z" id="Path-2" fill="#1B292D"></path>
                </g>
                <g id="ompass" transform="translate(117.7708, 89.1767)">
                    <path d="M29.2416243,57.3921433 C45.8264262,57.3921433 58.5923592,44.5170997 58.5923592,28.8051822 C58.5923592,13.3114857 45.9355367,0.327331616 29.2416243,0.327331616 C12.765933,0.327331616 0,13.2023752 0,28.8051822 C0,44.5170997 12.6568225,57.3921433 29.2416243,57.3921433 Z M29.2416243,42.8804417 C21.276555,42.8804417 15.4936965,36.5520304 15.4936965,28.9142927 C15.4936965,21.276555 21.276555,14.9481438 29.2416243,14.9481438 C37.2066937,14.9481438 43.0986627,21.276555 43.0986627,28.9142927 C43.0986627,36.5520304 37.2066937,42.8804417 29.2416243,42.8804417 Z" id="Shape" fill="#1B292D"></path>
                    <path d="M133.036921,0 C123.326083,0 115.688345,4.58264262 112.305919,12.0021592 C109.141713,4.58264262 101.613086,0 91.2475847,0 C73.7898985,0 64.9519449,12.6568225 64.9519449,27.7140768 L64.9519449,55.9737063 L80.4456414,55.9737063 L80.4456414,30.2236192 C80.4456414,22.0403288 83.8280681,15.0572543 92.4478006,15.0572543 C100.849312,15.0572543 104.44996,21.9312183 104.44996,30.2236192 L104.44996,55.9737063 L119.943656,55.9737063 L119.943656,30.1145087 C119.943656,21.9312183 123.544304,15.0572543 131.945816,15.0572543 C140.456438,15.0572543 144.057085,22.0403288 144.057085,30.3327297 L144.057085,55.9737063 L159.550782,55.9737063 L159.550782,27.7140768 C159.550782,12.6568225 150.603718,0 133.036921,0 Z" id="Path" fill="#1B292D"></path>
                    <path d="M184.131827,80.8509091 L184.131827,52.4821691 C188.168917,55.5372641 193.297113,57.5012538 198.75264,57.5012538 C215.555663,57.5012538 227.12138,45.7173157 227.12138,28.8051822 C227.12138,13.3114857 214.573668,0.436442154 197.879755,0.436442154 C181.076732,0.436442154 168.638131,12.5477119 168.638131,28.8051822 L168.638131,80.8509091 L184.131827,80.8509091 Z M197.879755,42.8804417 C189.914686,42.8804417 184.131827,36.5520304 184.131827,28.9142927 C184.131827,21.276555 189.914686,15.0572543 197.879755,15.0572543 C205.844825,15.0572543 211.627683,21.276555 211.627683,28.9142927 C211.627683,36.5520304 205.844825,42.8804417 197.879755,42.8804417 Z" id="Shape" fill="#FFA700"></path>
                    <path d="M257.594394,57.3921433 C265.013911,57.3921433 270.90588,54.4461588 274.724749,49.6452951 L274.724749,55.9737063 L289.454672,55.9737063 L289.454672,28.8051822 C289.454672,12.5477119 277.01607,0.327331616 260.103937,0.327331616 C243.519135,0.327331616 230.862312,13.3114857 230.862312,28.8051822 C230.862312,44.5170997 241.882477,57.3921433 257.594394,57.3921433 Z M260.103937,42.8804417 C252.138867,42.8804417 246.356009,36.5520304 246.356009,28.9142927 C246.356009,21.276555 252.138867,14.9481438 260.103937,14.9481438 C268.069006,14.9481438 273.960975,21.276555 273.960975,28.9142927 C273.960975,36.5520304 268.069006,42.8804417 260.103937,42.8804417 Z" id="Shape" fill="#FFA700"></path>
                    <path d="M319.709465,57.5012538 C332.038956,57.5012538 342.622678,50.5181794 342.622678,39.6071255 C342.622678,19.3125653 312.944612,26.2956398 312.944612,17.5667967 C312.944612,14.7299227 315.781486,12.8750436 319.600355,12.8750436 C323.964776,12.8750436 327.892756,14.7299227 329.638524,18.6579021 L341.095131,12.2203803 C337.821815,6.00107962 330.83874,0.545552693 319.273023,0.545552693 C305.961537,0.545552693 297.450915,8.18329039 297.450915,17.8941283 C297.450915,38.7342412 327.128982,31.205614 327.128982,39.9344571 C327.128982,43.0986627 323.964776,45.0626524 318.945692,45.0626524 C313.490165,45.0626524 309.889517,43.2077733 307.598196,38.8433517 L296.141589,45.2808735 C300.615121,53.3550534 308.47108,57.5012538 319.709465,57.5012538 Z" id="Path" fill="#FFA700"></path>
                    <path d="M370.586151,57.5012538 C382.915642,57.5012538 393.499364,50.5181794 393.499364,39.6071255 C393.499364,19.3125653 363.821297,26.2956398 363.821297,17.5667967 C363.821297,14.7299227 366.658171,12.8750436 370.47704,12.8750436 C374.841462,12.8750436 378.769441,14.7299227 380.51521,18.6579021 L391.971816,12.2203803 C388.6985,6.00107962 381.715426,0.545552693 370.149709,0.545552693 C356.838223,0.545552693 348.327601,8.18329039 348.327601,17.8941283 C348.327601,38.7342412 378.005667,31.205614 378.005667,39.9344571 C378.005667,43.0986627 374.841462,45.0626524 369.822377,45.0626524 C364.36685,45.0626524 360.766202,43.2077733 358.474881,38.8433517 L347.018274,45.2808735 C351.491806,53.3550534 359.347765,57.5012538 370.586151,57.5012538 Z" id="Path" fill="#FFA700"></path>
                </g>
            </g>
        </g>
    </g>
</svg>