<?xml version="1.0" encoding="UTF-8"?>
<svg width="512px" height="512px" viewBox="0 0 512 512" version="1.1" xmlns="http://www.w3.org/2000/svg" xmlns:xlink="http://www.w3.org/1999/xlink">
    <g id="kompass-avatar" stroke="none" stroke-width="1" fill="none" fill-rule="evenodd">
        <g id="Icon" transform="translate(113.000000, 56.000000)" fill-rule="nonzero">
            <path d="M255.689486,261.859484 C260.590521,254.237456 270.741089,252.032543 278.361414,256.934673 C285.98174,261.836802 288.186161,271.989638 283.285126,279.611665 C258.905195,317.527027 221.808207,340.661583 173.149769,348.665452 C125.019051,356.582516 85.6223286,350.392245 55.7073247,329.342847 C48.2969626,324.128619 46.5157003,313.893024 51.7287641,306.481006 C56.9418279,299.068989 67.1751366,297.287329 74.5854988,302.501557 C96.7049927,318.065721 127.53575,322.910052 167.825491,316.282757 C207.587513,309.742267 236.490309,291.717803 255.689486,261.859484 Z" id="gold" fill="#FFA700"></path>
            <path d="M138.537613,196.688906 C158.590446,196.688906 177.357164,206.49382 188.816337,222.910283 L189.296162,223.607862 L282.881767,361.689673 C290.285952,372.614252 287.434087,387.473993 276.511948,394.879832 C265.745839,402.179874 251.157053,399.512576 243.651053,388.971838 L243.329201,388.508591 L149.743596,250.42678 C147.224471,246.709912 143.027037,244.483872 138.537613,244.483872 C134.663159,244.483872 131.056535,246.422341 128.915579,249.628794 L128.675118,250.004358 L44.2592027,387.598142 C37.3577316,398.8472 22.6458571,402.370366 11.3993114,395.467353 C0.311167706,388.661566 -3.26885901,374.262141 3.24644239,363.077465 L3.53185794,362.600121 L87.9477734,225.006337 C98.7422317,207.411902 117.899148,196.688906 138.537613,196.688906 Z" id="Path-3" fill="#36424A"></path>
            <path d="M137.639492,66.219747 C105.709297,66.219747 79.8187427,92.0926497 79.8187427,124.015924 C79.8187427,155.939199 105.709297,181.812102 137.639492,181.812102 C169.569687,181.812102 195.460242,155.939199 195.460242,124.015924 C195.460242,92.0926497 169.569687,66.219747 137.639492,66.219747 Z M137.639492,99.0374182 C151.455683,99.0374182 162.6499,110.224004 162.6499,124.015924 C162.6499,137.807845 151.455683,148.994431 137.639492,148.994431 C123.823302,148.994431 112.629085,137.807845 112.629085,124.015924 C112.629085,110.224004 123.823302,99.0374182 137.639492,99.0374182 Z" id="Path-2" fill="#36424A"></path>
            <path d="M137.639492,0 C146.546253,0 153.795193,7.09956297 154.038361,15.9495443 L154.044663,16.4088356 L154.044663,71.5919581 C154.044663,80.6543077 146.699818,88.0007937 137.639492,88.0007937 C128.732732,88.0007937 121.483792,80.9012307 121.240624,72.0512493 L121.234321,71.5919581 L121.234321,16.4088356 C121.234321,7.34648593 128.579167,0 137.639492,0 Z" id="Path-1" fill="#36424A"></path>
        </g>
    </g>
          <style>
            @media (prefers-color-scheme: dark) {
            #Path-1,#Path-2,#Path-3 { fill: #C6C6C6 }
    }
  </style>
</svg>