<?xml version="1.0" encoding="UTF-8"?>
<svg width="512px" height="512px" viewBox="0 0 512 512" version="1.1" xmlns="http://www.w3.org/2000/svg" xmlns:xlink="http://www.w3.org/1999/xlink">
    <title>favicon</title>
    <g id="favicon" stroke="none" stroke-width="1" fill="none" fill-rule="evenodd">
        <g id="Icon" transform="translate(103, 58)" fill-rule="nonzero">
            <path d="M146.751515,42.6733449 C112.707474,42.6733449 85.1029103,70.2991788 85.1029103,104.385307 C85.1029103,138.471436 112.707474,166.097269 146.751515,166.097269 C180.795555,166.097269 208.400119,138.471436 208.400119,104.385307 C208.400119,70.2991788 180.795555,42.6733449 146.751515,42.6733449 Z M146.751515,77.7144666 C161.482365,77.7144666 173.417664,89.6589615 173.417664,104.385307 C173.417664,119.111653 161.482365,131.056148 146.751515,131.056148 C132.020664,131.056148 120.085365,119.111653 120.085365,104.385307 C120.085365,89.6589615 132.020664,77.7144666 146.751515,77.7144666 Z" id="Oval" fill="#1B292D"></path>
            <path d="M146.751515,0 C156.247922,0 163.976756,7.58056987 164.236022,17.0301518 L164.242742,76.4424294 L129.260287,76.4424294 L129.260287,17.5205608 C129.260287,7.84422227 137.091376,0 146.751515,0 Z" id="Path-4" fill="#1B292D"></path>
            <path d="M272.544557,251.521538 C277.795664,243.343215 288.671267,240.977375 296.835898,246.237288 C305.000529,251.497201 307.362407,262.391043 302.1113,270.569366 C276.10383,311.074639 236.529533,335.78997 184.626558,344.339943 C133.288997,352.796776 91.2617469,346.183582 59.3459376,323.6937 C51.4062675,318.09891 49.4977731,307.116268 55.083196,299.163283 C60.5688793,291.352316 71.2430078,289.368804 79.1443582,294.600845 L79.5725432,294.893393 C103.136024,311.497701 135.985459,316.66672 178.921977,309.593791 C221.293082,302.614002 252.087892,283.381722 272.544557,251.521538 Z" id="Path-3" fill="#FFA700"></path>
            <path d="M147.709092,181.982001 C169.089465,181.982001 189.098579,192.451214 201.316374,209.979919 L201.827964,210.72476 L301.609131,358.161838 C309.503489,369.826575 306.462825,385.693087 294.817617,393.600684 C283.338769,401.395316 267.784175,398.547304 259.781262,387.292414 L259.438103,386.797781 L159.656936,239.360703 C156.971039,235.392011 152.495726,233.015154 147.709092,233.015154 C143.578142,233.015154 139.732752,235.084957 137.45006,238.508652 L137.19368,238.909662 L47.1892545,385.825648 C39.8308915,397.836848 24.1450602,401.598714 12.1539696,394.228011 C0.331767659,386.96112 -3.48526431,371.586111 3.46136366,359.643655 L3.76567432,359.13397 L93.7700999,212.217985 C105.279174,193.431498 125.704318,181.982001 147.709092,181.982001 Z" id="Path-2" fill="#1B292D"></path>
        </g>
    </g>
    <style>
            @media (prefers-color-scheme: dark) {
            #Path-1,#Path-2,#Path-3,#Path-4,#Oval { fill: #C6C6C6 }
    }
  </style>
</svg>